HIERARCHY
ROOT pelvis
{
  OFFSET 0 100 0
  CHANNELS 6 Xposition Yposition Zposition Zrotation Xrotation Yrotation
  JOINT pelvis_right_femur
  {
    OFFSET -10.78128 -3.44521 -0.5502486
    CHANNELS 3 Zrotation Xrotation Yrotation
    JOINT right_femur_tibia
    {
      OFFSET -0.8047443 -44.0398 -0.1307829
      CHANNELS 3 Zrotation Xrotation Yrotation
      JOINT right_tibia_foot
      {
        OFFSET 3.006224 -47.83518 -5
        CHANNELS 3 Zrotation Xrotation Yrotation
        End Site
        {
          OFFSET 0 -5 15
        }
      }
    }
  }
  JOINT pelvis_left_femur
  {
    OFFSET 10.78128 -3.44521 -0.5502486
    CHANNELS 3 Zrotation Xrotation Yrotation
    JOINT left_femur_tibia
    {
      OFFSET 0.8047443 -44.0398 -0.1307829
      CHANNELS 3 Zrotation Xrotation Yrotation
      JOINT left_tibia_foot
      {
        OFFSET -4.370144 -48.10324 -4.275266
        CHANNELS 3 Zrotation Xrotation Yrotation
        End Site
        {
          OFFSET 0 -5 15
        }
      }
    }
  }
  JOINT pelvis_spine1
  {
    OFFSET 0 6.468898 -3.129235
    CHANNELS 3 Zrotation Xrotation Yrotation
    JOINT spine1
    {
      OFFSET 0 23.15396 4.99043
      CHANNELS 3 Zrotation Xrotation Yrotation
      JOINT spine2
      {
        OFFSET 0 20.79997 -5.064912
        CHANNELS 3 Zrotation Xrotation Yrotation
        JOINT neck
        {
          OFFSET 0 14.38658 9.616178
          CHANNELS 3 Zrotation Xrotation Yrotation
          End Site
          {
            OFFSET 0 20 0
          }
        }
      }
      JOINT right_manubrium
      {
        OFFSET -5.722621 16.35077 3.967754
        CHANNELS 3 Zrotation Xrotation Yrotation
        JOINT right_clavicle
        {
          OFFSET -13.16364 1.694482 -4.693211
          CHANNELS 3 Zrotation Xrotation Yrotation
          JOINT right_humerus
          {
            OFFSET -28.5034 -0.3100689 -2.792744
            CHANNELS 3 Zrotation Xrotation Yrotation
            JOINT right_radius
            {
              OFFSET -25.15693 0.02248979 -1.271978
              CHANNELS 3 Zrotation Xrotation Yrotation
              End Site
              {
                OFFSET -15 0 0
              }
            }
          }
        }
      }
      JOINT left_manubrium
      {
        OFFSET 5.722621 16.35077 3.967754
        CHANNELS 3 Zrotation Xrotation Yrotation
        JOINT left_clavicle
        {
          OFFSET 13.16364 1.694482 -4.693211
          CHANNELS 3 Zrotation Xrotation Yrotation
          JOINT left_humerus
          {
            OFFSET 29.39168 -1.063119 -2.237045
            CHANNELS 3 Zrotation Xrotation Yrotation
            JOINT left_radius
            {
              OFFSET 24.59957 -0.9528479 0.9047498
              CHANNELS 3 Zrotation Xrotation Yrotation
              End Site
              {
                OFFSET 15 -0 -0
              }
            }
          }
        }
      }
    }
  }
}
MOTION
Frames: 19
Frame Time: 0.0416666666667
2029.994 100.2965 1923.683 6.495459 -0.1260112 91.84954 5.682991 -10.47426 5.519027 -0 16.86814 -0 -2.366552 -7.067611 -6.696499 -2.815786 7.210218 -8.127351 -0 55.69703 -0 -9.176465 -7.281742 13.92977 -0.1760821 0.180564 3.838081 1.255388 9.74744 -6.672863 2.279574 22.66631 5.425865 2.279434 -18.49294 7.673302 3.113198 -13.82079 10.5487 90.23217 28.2125 -21.22469 -0 0 7.205508 -17.70748 14.21477 8.032275 4.929409 -20.07069 -2.985804 -85.38043 24.79612 9.292656 0 0 -21.7785 2.54837 9.004443 10.62944
2036.283 101.5199 1923.853 7.60907 0.3553924 91.01148 5.270943 -4.643389 5.571267 -0 16.29809 -0 -2.221052 -8.665288 -5.908379 -2.560943 0.0721005 -7.497981 -0 59.67302 -0 -8.642004 -6.392513 15.43292 -0.4593747 0.785118 5.076623 0.7747772 10.22591 -5.681159 2.347751 23.02731 5.350646 2.504774 -17.99152 7.457495 3.152193 -14.78786 10.92646 88.66986 28.23782 -18.95225 -0 0 9.180687 -18.8565 14.2874 8.625227 4.747313 -19.49583 -3.066262 -87.05408 24.35248 11.8638 0 0 -19.77869 2.218216 8.870827 10.72579
2042.217 102.3869 1923.952 8.283927 0.8146709 90.16326 4.749788 0.6872736 5.382688 -0 14.75196 -0 -1.990088 -10.16459 -5.022893 -2.026851 -7.354382 -6.611226 -0 58.37951 -0 -8.142616 -6.573281 16.94892 -0.8257467 1.350806 6.233104 0.2221384 10.44079 -4.706251 2.377897 23.24339 5.286474 2.739471 -17.49487 7.188284 2.915274 -16.03268 11.19308 86.84913 28.01364 -16.28491 -0 0 11.86652 -20.14261 14.02685 9.373027 4.892503 -18.95291 -3.078238 -88.77831 24.0786 14.6301 0 0 -17.9549 1.675578 8.658327 11.12875
2047.96 102.6532 1923.956 8.351652 1.030505 89.42267 4.409234 5.456524 5.074643 -0 13.11464 -0 -1.675559 -11.80366 -4.105952 -1.103758 -14.15341 -5.455619 -0 51.91397 -0 -7.739974 -7.160822 18.25545 -1.038742 1.718872 7.054903 -0.2493186 10.30274 -3.9012 2.295829 23.2682 5.251068 2.802497 -17.2135 6.958499 2.390333 -17.47021 11.31062 84.95351 27.48514 -13.37864 -0 0 14.9395 -21.30986 13.43887 10.30636 5.179976 -18.26347 -2.908229 -90.43797 23.93618 17.46562 0 0 -16.18196 1.015976 8.271737 11.75238
2053.699 102.2717 1923.843 7.889697 0.9041531 88.80836 4.325602 9.732585 4.711097 -0 12.13294 -0 -1.281483 -13.72715 -3.176989 0.1003744 -19.66701 -4.212486 -0 42.10002 -0 -7.423091 -7.566439 19.21539 -0.9874419 1.827867 7.474657 -0.5483681 9.880513 -3.340738 2.093133 23.12172 5.26229 2.64533 -17.24579 6.8304 1.688428 -18.96411 11.28122 83.17544 26.73364 -10.47887 -0 0 18.00602 -22.25025 12.63285 11.41756 5.399963 -17.37918 -2.564368 -91.93401 23.872 20.20751 0 0 -14.3359 0.3312939 7.726126 12.50651
2059.589 101.3895 1923.594 7.100661 0.5323373 88.25191 4.303777 13.44077 4.26264 -0 12.04515 -0 -0.8813238 -15.66297 -2.189801 1.228234 -23.61225 -3.243736 -0 31.72805 -0 -7.09664 -7.600177 19.76991 -0.7770352 1.691736 7.625095 -0.69066 9.358126 -3.012879 1.836965 22.86863 5.337302 2.414156 -17.54726 6.79548 1.027645 -20.30443 11.13412 81.64329 26.05625 -7.89838 -0 0 20.65944 -23.03708 11.76439 12.6127 5.450919 -16.46143 -2.159172 -93.14659 23.79693 22.61491 0 0 -12.41876 -0.21963 7.186432 13.20159
2065.753 100.2718 1923.202 6.229978 0.1926869 87.67385 4.000315 16.40351 3.723929 -0 12.86367 -0 -0.5684564 -16.89375 -1.153007 1.794351 -25.97959 -2.926888 -0 23.46483 -0 -6.635634 -7.434662 19.9548 -0.6785817 1.343135 7.728894 -0.7703625 8.92698 -2.844011 1.633468 22.59289 5.471874 2.335188 -17.9566 6.796373 0.6157814 -21.24675 10.91265 80.4384 25.76923 -5.947156 -0 0 22.54712 -23.79853 10.96315 13.68446 5.366712 -15.74478 -1.839139 -93.93862 23.61036 24.40833 0 0 -10.56718 -0.4606567 6.848443 13.57469
2072.275 99.20445 1922.669 5.539816 0.1962744 87.07405 3.165795 18.54645 3.254526 -0 14.94466 -0 -0.3232508 -16.55688 -0.2463656 1.425547 -26.88003 -3.434202 -0 18.84438 -0 -6.011792 -7.366621 19.89618 -0.9523548 0.8127031 7.955154 -0.8888122 8.699481 -2.736572 1.568137 22.36061 5.622723 2.517599 -18.29093 6.78527 0.5196857 -21.64922 10.66944 79.69049 25.87162 -4.852727 -0 0 23.52318 -24.55171 10.30344 14.39229 5.231699 -15.31705 -1.703915 -94.29136 23.30469 25.50228 0 0 -8.959293 -0.4079052 6.736881 13.57557
2079.181 98.43635 1922.009 5.247322 0.6720836 86.57228 1.845694 19.86165 3.107294 -0 19.16824 -0 -0.01968333 -14.10611 0.2364798 0.08500298 -26.38277 -4.618869 -0 17.77825 -0 -5.346104 -7.58472 19.73544 -1.657775 0.152535 8.302422 -1.092144 8.695917 -2.631192 1.644463 22.19463 5.737129 2.874904 -18.44399 6.750575 0.6726569 -21.55966 10.46083 79.57731 26.03867 -4.698608 -0 0 23.70266 -25.14522 9.8108 14.60257 5.087109 -15.0794 -1.763792 -94.35431 22.99965 26.09841 0 0 -7.716903 -0.3085116 6.667213 13.48736
2086.397 98.17123 1921.254 5.429336 1.456891 86.36283 0.3958545 20.09123 3.371775 -0 26.33304 -0 0.3850162 -9.677612 0.07192525 -1.865023 -24.42356 -6.077208 -0 18.94425 -0 -4.780356 -8.095403 19.54276 -2.60127 -0.5199581 8.570534 -1.348638 8.898334 -2.574562 1.769435 22.08931 5.801717 3.230597 -18.41217 6.69342 1.000574 -21.14253 10.33834 80.18479 26.00855 -5.406436 -0 0 23.2842 -25.35327 9.462792 14.35178 4.916103 -14.94006 -1.974769 -94.25011 22.83594 26.38973 0 0 -6.897887 -0.3577958 6.439079 13.60011
2093.725 98.54632 1920.45 5.978034 2.196258 86.61185 -0.691992 18.64935 3.842853 -0 36.13111 -0 0.7429054 -4.186183 -0.743994 -3.821418 -20.93967 -7.33701 -0 20.67795 -0 -4.312717 -8.817243 19.28954 -3.460989 -1.020435 8.471915 -1.552222 9.294579 -2.725224 1.809768 22.03711 5.843918 3.444926 -18.28118 6.610253 1.467642 -20.56713 10.33914 81.42146 25.8306 -6.788592 -0 0 22.38033 -25.02715 9.195154 13.81596 4.679277 -14.96805 -2.296994 -93.9053 22.87213 26.27463 0 0 -6.572665 -0.4837918 6.001501 13.89324
2100.885 99.56051 1919.644 6.663559 2.575941 87.36468 -1.076803 15.05445 4.19896 -0 46.63988 -0 0.8377158 0.8812484 -1.988972 -5.261145 -16.11503 -8.110752 -0 21.66695 -0 -3.817841 -9.710644 18.88537 -3.976744 -1.184553 7.820759 -1.555102 9.839368 -3.254458 1.678554 22.03836 5.893494 3.442753 -18.18249 6.516703 1.999112 -19.95975 10.46574 83.06451 25.69883 -8.626533 -0 0 21.06244 -24.18799 8.953526 13.23648 4.355239 -15.30424 -2.702547 -93.13348 23.10634 25.43981 0 0 -6.872173 -0.5025877 5.44738 14.13921
2107.609 101.0106 1918.863 7.255931 2.515784 88.52057 -0.8071892 9.456647 4.262681 -0 54.93116 -0 0.569879 3.988865 -3.351831 -5.999887 -10.44703 -8.453892 -0 21.24171 -0 -3.230487 -10.82837 18.25405 -4.078963 -0.9851429 6.664236 -1.254147 10.37878 -4.196514 1.391706 22.10534 5.962281 3.208483 -18.19307 6.470476 2.440094 -19.3728 10.65666 84.83311 25.7046 -10.70376 -0 0 19.46888 -23.02124 8.759312 12.80139 3.989977 -15.97685 -3.14912 -91.83012 23.54375 23.62864 0 0 -7.945738 -0.3804921 4.949977 14.1788
2113.755 102.5263 1918.118 7.6054 2.197571 89.88902 -0.2764879 2.712485 4.025098 -0 58.51733 -0 0.02713427 4.304842 -4.600536 -6.189421 -4.579191 -8.662893 -0 19.40881 -0 -2.669325 -12.26446 17.40825 -3.898095 -0.5609265 5.268513 -0.6877924 10.67556 -5.376306 1.058423 22.25389 6.054592 2.809958 -18.25873 6.543542 2.637947 -18.76599 10.79186 86.45537 25.82353 -12.81999 -0 0 17.78734 -21.79477 8.714097 12.52989 3.72348 -16.86017 -3.575779 -90.06871 24.1948 20.82534 0 0 -9.873227 -0.2596232 4.715346 14.01945
2119.353 103.7106 1917.42 7.649473 1.905443 91.28185 0.08238972 -4.084228 3.514642 -0 56.61962 -0 -0.5958253 2.210282 -5.64008 -6.113224 0.9341095 -9.003635 -0 16.69528 -0 -2.360689 -14.04672 16.46007 -3.653783 -0.1179229 3.969445 -0.03345057 10.56808 -6.503282 0.8107255 22.4708 6.175913 2.399901 -18.24586 6.759161 2.560594 -18.05733 10.76497 87.75586 26.04393 -14.83562 -0 0 16.15618 -20.74734 8.922484 12.27907 3.732061 -17.7995 -3.933747 -88.05909 25.01218 17.2931 0 0 -12.58826 -0.2749671 4.903138 13.75445
2124.567 104.2887 1916.783 7.392933 1.816803 92.5744 0.06889469 -10.16099 2.766796 -0 50.30176 -0 -1.134002 -0.9718277 -6.453015 -5.986485 5.76774 -9.527464 -0 13.84037 -0 -2.464086 -16.06421 15.54726 -3.503062 0.1971336 2.998062 0.5161851 10.09568 -7.357282 0.726598 22.69352 6.322968 2.14306 -18.07113 7.06084 2.312938 -17.21658 10.56023 88.71554 26.39724 -16.70526 -0 0 14.62513 -20.00329 9.402553 11.88283 4.113405 -18.72795 -4.213564 -86.05254 25.86408 13.49122 0 0 -15.85286 -0.4182443 5.525894 13.46862
2129.618 104.172 1916.212 6.894641 1.924174 93.7136 -0.2365945 -15.24423 1.880486 -0 41.57203 -0 -1.510076 -3.829146 -7.047952 -5.88756 9.830605 -10.09887 -0 11.49705 -0 -2.992643 -18.0887 14.74742 -3.468067 0.340652 2.407951 0.8679043 9.449055 -7.887626 0.8072582 22.83869 6.472037 2.122202 -17.76468 7.349524 2.039196 -16.29961 10.24807 89.44001 26.86717 -18.44841 -0 0 13.19493 -19.55208 10.06604 11.27242 4.824107 -19.65508 -4.432928 -84.26163 26.59189 9.906638 0 0 -19.31057 -0.5708013 6.432626 13.20631
2134.72 103.4344 1915.702 6.25057 2.103263 94.69513 -0.5972441 -19.37984 1.027656 -0 32.38676 -0 -1.715704 -5.53032 -7.460304 -5.796088 13.19062 -10.53668 -0 10.10658 -0 -3.861559 -19.85033 14.05737 -3.472663 0.3367975 2.119774 1.038202 8.828012 -8.169655 1.007453 22.85051 6.582335 2.306848 -17.43078 7.547742 1.829545 -15.40037 9.919397 90.06613 27.33997 -20.089 -0 0 11.85661 -19.28561 10.77149 10.48226 5.712786 -20.58777 -4.601412 -82.81368 27.08743 6.891487 0 0 -22.58732 -0.6059417 7.400779 12.97462
2140.053 102.2543 1915.244 5.564865 2.211224 95.53584 -0.7587788 -22.68642 0.4085067 -0 24.16962 -0 -1.786739 -5.937658 -7.750954 -5.653934 15.97169 -10.7257 -0 9.942995 -0 -4.96017 -21.09552 13.43269 -3.414489 0.2288475 2.005073 1.099759 8.353423 -8.313666 1.273053 22.72289 6.611566 2.590714 -17.18263 7.63312 1.707796 -14.59275 9.636948 90.68404 27.668 -21.61567 -0 0 10.59919 -19.05845 11.395 9.596892 6.591506 -21.48154 -4.700542 -81.75009 27.32492 4.609733 0 0 -25.37234 -0.4518235 8.245016 12.76138
